{
	"asset":{
		"copyright":"WPL @2024",
		"generator":"Khronos glTF Blender I/O v4.0.44",
		"version":"2.0"
	},
	"extensionsUsed":[
		"KHR_materials_unlit"
	],
	"scene":0,
	"scenes":[
		{
			"extras":{
				"wpl_armdOpts":{},
				"wpl_geompOpts":{},
				"wpl_vcOpts":{},
				"wpl_deformOpts":{},
				"wpl_stamppOpts":{
					"opt_gridorient":0,
					"opt_curv_grd_cuh":"999"
				},
				"mi_curguide_settings":{},
				"mi_cur_stretch_settings":{},
				"wpl_uvvgOpts":{},
				"wpl_pffOpts":{
					"proj_folder":"/Users/ipv6/Documents/zzz_CloudFiles/Yandex.Disk.localized/_Renders/gltf/main_menu",
					"base_resolution":[
						1920.0,
						1080.0
					]
				}
			},
			"name":"Scene",
			"nodes":[
				7
			]
		}
	],
	"nodes":[
		{
			"extras":{
				"#pff:xywh":[
					0,
					0,
					1920,
					1080
				],
				"#pff:layer":"bg"
			},
			"mesh":0,
			"name":"bg",
			"translation":[
				0,
				0.050999995321035385,
				0
			]
		},
		{
			"extras":{
				"#pff:xywh":[
					37,
					37,
					307,
					284
				],
				"#pff:layer":"buttons_bt_exit"
			},
			"mesh":1,
			"name":"bt_exit",
			"translation":[
				-7.364999771118164,
				0.10000000894069672,
				-3.3350000381469727
			]
		},
		{
			"extras":{
				"#pff:xywh":[
					1507,
					687,
					310,
					301
				],
				"#pff:layer":"buttons_bt_options"
			},
			"mesh":2,
			"name":"bt_options",
			"translation":[
				7.349999904632568,
				0.10099999606609344,
				3.25
			]
		},
		{
			"extras":{
				"#pff:xywh":[
					1241,
					706,
					331,
					278
				],
				"#pff:layer":"buttons_bt_read"
			},
			"mesh":3,
			"name":"bt_read",
			"translation":[
				4.795000076293945,
				0.10050000250339508,
				3.325000047683716
			]
		},
		{
			"children":[
				1,
				2,
				3
			],
			"extras":{
				"#pff:xywh":[
					37,
					37,
					1780,
					951
				],
				"#pff:layer":"buttons"
			},
			"name":"buttons",
			"translation":[
				-0.33000001311302185,
				0.05050000175833702,
				-0.2750000059604645
			]
		},
		{
			"extras":{
				"#pff:xywh":[
					664,
					241,
					847,
					815
				],
				"#pff:layer":"logo_bg_title"
			},
			"mesh":4,
			"name":"bg_title_ru",
			"translation":[
				0,
				0.10000000149011612,
				0
			]
		},
		{
			"children":[
				5
			],
			"extras":{
				"#pff:xywh":[
					664,
					241,
					847,
					815
				],
				"#pff:layer":"logo"
			},
			"name":"logo",
			"translation":[
				1.274999976158142,
				0.05000000074505806,
				1.0850000381469727
			]
		},
		{
			"children":[
				0,
				4,
				6
			],
			"extras":{
				"#pff:xywh":[
					0,
					0,
					1920,
					1080
				]
			},
			"name":"main_menu",
			"translation":[
				0,
				0.05000000074505806,
				0
			]
		}
	],
	"animations":[
		{
			"channels":[
				{
					"sampler":0,
					"target":{
						"node":4,
						"path":"translation"
					}
				},
				{
					"sampler":1,
					"target":{
						"node":4,
						"path":"rotation"
					}
				},
				{
					"sampler":2,
					"target":{
						"node":4,
						"path":"scale"
					}
				}
			],
			"name":"buttonsAction",
			"samplers":[
				{
					"input":11,
					"interpolation":"LINEAR",
					"output":12
				},
				{
					"input":11,
					"interpolation":"LINEAR",
					"output":13
				},
				{
					"input":11,
					"interpolation":"LINEAR",
					"output":14
				}
			]
		},
		{
			"channels":[
				{
					"sampler":0,
					"target":{
						"node":1,
						"path":"translation"
					}
				},
				{
					"sampler":1,
					"target":{
						"node":1,
						"path":"scale"
					}
				}
			],
			"name":"bt_exitAction",
			"samplers":[
				{
					"input":15,
					"interpolation":"LINEAR",
					"output":16
				},
				{
					"input":15,
					"interpolation":"LINEAR",
					"output":17
				}
			]
		},
		{
			"channels":[
				{
					"sampler":0,
					"target":{
						"node":6,
						"path":"translation"
					}
				}
			],
			"name":"[Action Stash]",
			"samplers":[
				{
					"input":18,
					"interpolation":"LINEAR",
					"output":19
				}
			]
		}
	],
	"materials":[
		{
			"alphaMode":"BLEND",
			"extensions":{
				"KHR_materials_unlit":{}
			},
			"name":"kri_bg",
			"pbrMetallicRoughness":{
				"baseColorTexture":{
					"index":0
				},
				"metallicFactor":0,
				"roughnessFactor":0.9
			}
		},
		{
			"alphaMode":"BLEND",
			"extensions":{
				"KHR_materials_unlit":{}
			},
			"name":"kri_buttons_bt_exit",
			"pbrMetallicRoughness":{
				"baseColorTexture":{
					"index":1
				},
				"metallicFactor":0,
				"roughnessFactor":0.9
			}
		},
		{
			"alphaMode":"BLEND",
			"extensions":{
				"KHR_materials_unlit":{}
			},
			"name":"kri_buttons_bt_options",
			"pbrMetallicRoughness":{
				"baseColorTexture":{
					"index":2
				},
				"metallicFactor":0,
				"roughnessFactor":0.9
			}
		},
		{
			"alphaMode":"BLEND",
			"extensions":{
				"KHR_materials_unlit":{}
			},
			"name":"kri_buttons_bt_read",
			"pbrMetallicRoughness":{
				"baseColorTexture":{
					"index":3
				},
				"metallicFactor":0,
				"roughnessFactor":0.9
			}
		},
		{
			"alphaMode":"BLEND",
			"extensions":{
				"KHR_materials_unlit":{}
			},
			"name":"kri_logo_bg_title",
			"pbrMetallicRoughness":{
				"baseColorTexture":{
					"index":4
				},
				"metallicFactor":0,
				"roughnessFactor":0.9
			}
		}
	],
	"meshes":[
		{
			"name":"Mesh_4",
			"primitives":[
				{
					"attributes":{
						"POSITION":0,
						"TEXCOORD_0":1
					},
					"indices":2,
					"material":0
				}
			]
		},
		{
			"name":"Mesh_1",
			"primitives":[
				{
					"attributes":{
						"POSITION":3,
						"TEXCOORD_0":4
					},
					"indices":2,
					"material":1
				}
			]
		},
		{
			"name":"Mesh_3",
			"primitives":[
				{
					"attributes":{
						"POSITION":5,
						"TEXCOORD_0":6
					},
					"indices":2,
					"material":2
				}
			]
		},
		{
			"name":"Mesh_2",
			"primitives":[
				{
					"attributes":{
						"POSITION":7,
						"TEXCOORD_0":8
					},
					"indices":2,
					"material":3
				}
			]
		},
		{
			"name":"Mesh_0",
			"primitives":[
				{
					"attributes":{
						"POSITION":9,
						"TEXCOORD_0":10
					},
					"indices":2,
					"material":4
				}
			]
		}
	],
	"textures":[
		{
			"sampler":0,
			"source":0
		},
		{
			"sampler":0,
			"source":1
		},
		{
			"sampler":0,
			"source":2
		},
		{
			"sampler":0,
			"source":3
		},
		{
			"sampler":0,
			"source":4
		}
	],
	"images":[
		{
			"mimeType":"image/jpeg",
			"name":"bg",
			"uri":"bg.jpg"
		},
		{
			"mimeType":"image/png",
			"name":"buttons_bt_exit",
			"uri":"buttons_bt_exit.png"
		},
		{
			"mimeType":"image/png",
			"name":"buttons_bt_options",
			"uri":"buttons_bt_options.png"
		},
		{
			"mimeType":"image/png",
			"name":"buttons_bt_read",
			"uri":"buttons_bt_read.png"
		},
		{
			"mimeType":"image/png",
			"name":"logo_bg_title",
			"uri":"logo_bg_title.png"
		}
	],
	"accessors":[
		{
			"bufferView":0,
			"componentType":5126,
			"count":4,
			"max":[
				9.600000381469727,
				0.10100000351667404,
				5.400000095367432
			],
			"min":[
				-9.600000381469727,
				0.10100000351667404,
				-5.400000095367432
			],
			"type":"VEC3"
		},
		{
			"bufferView":1,
			"componentType":5126,
			"count":4,
			"type":"VEC2"
		},
		{
			"bufferView":2,
			"componentType":5123,
			"count":6,
			"type":"SCALAR"
		},
		{
			"bufferView":3,
			"componentType":5126,
			"count":4,
			"max":[
				1.534999966621399,
				0.15049999952316284,
				1.4199999570846558
			],
			"min":[
				-1.534999966621399,
				0.15049999952316284,
				-1.4199999570846558
			],
			"type":"VEC3"
		},
		{
			"bufferView":4,
			"componentType":5126,
			"count":4,
			"type":"VEC2"
		},
		{
			"bufferView":5,
			"componentType":5126,
			"count":4,
			"max":[
				1.5499999523162842,
				0.15150000154972076,
				1.5049999952316284
			],
			"min":[
				-1.5499999523162842,
				0.15150000154972076,
				-1.5049999952316284
			],
			"type":"VEC3"
		},
		{
			"bufferView":6,
			"componentType":5126,
			"count":4,
			"type":"VEC2"
		},
		{
			"bufferView":7,
			"componentType":5126,
			"count":4,
			"max":[
				1.6549999713897705,
				0.1509999930858612,
				1.3899999856948853
			],
			"min":[
				-1.6549999713897705,
				0.1509999930858612,
				-1.3899999856948853
			],
			"type":"VEC3"
		},
		{
			"bufferView":8,
			"componentType":5126,
			"count":4,
			"type":"VEC2"
		},
		{
			"bufferView":9,
			"componentType":5126,
			"count":4,
			"max":[
				4.235000133514404,
				0.15000000596046448,
				4.074999809265137
			],
			"min":[
				-4.235000133514404,
				0.15000000596046448,
				-4.074999809265137
			],
			"type":"VEC3"
		},
		{
			"bufferView":10,
			"componentType":5126,
			"count":4,
			"type":"VEC2"
		},
		{
			"bufferView":11,
			"componentType":5126,
			"count":40,
			"max":[
				1.625
			],
			"min":[
				0
			],
			"type":"SCALAR"
		},
		{
			"bufferView":12,
			"componentType":5126,
			"count":40,
			"type":"VEC3"
		},
		{
			"bufferView":13,
			"componentType":5126,
			"count":40,
			"type":"VEC4"
		},
		{
			"bufferView":14,
			"componentType":5126,
			"count":40,
			"type":"VEC3"
		},
		{
			"bufferView":15,
			"componentType":5126,
			"count":61,
			"max":[
				2.5
			],
			"min":[
				0
			],
			"type":"SCALAR"
		},
		{
			"bufferView":16,
			"componentType":5126,
			"count":61,
			"type":"VEC3"
		},
		{
			"bufferView":17,
			"componentType":5126,
			"count":61,
			"type":"VEC3"
		},
		{
			"bufferView":18,
			"componentType":5126,
			"count":59,
			"max":[
				2.4166666666666665
			],
			"min":[
				0
			],
			"type":"SCALAR"
		},
		{
			"bufferView":19,
			"componentType":5126,
			"count":59,
			"type":"VEC3"
		}
	],
	"bufferViews":[
		{
			"buffer":0,
			"byteLength":48,
			"byteOffset":0,
			"target":34962
		},
		{
			"buffer":0,
			"byteLength":32,
			"byteOffset":48,
			"target":34962
		},
		{
			"buffer":0,
			"byteLength":12,
			"byteOffset":80,
			"target":34963
		},
		{
			"buffer":0,
			"byteLength":48,
			"byteOffset":92,
			"target":34962
		},
		{
			"buffer":0,
			"byteLength":32,
			"byteOffset":140,
			"target":34962
		},
		{
			"buffer":0,
			"byteLength":48,
			"byteOffset":172,
			"target":34962
		},
		{
			"buffer":0,
			"byteLength":32,
			"byteOffset":220,
			"target":34962
		},
		{
			"buffer":0,
			"byteLength":48,
			"byteOffset":252,
			"target":34962
		},
		{
			"buffer":0,
			"byteLength":32,
			"byteOffset":300,
			"target":34962
		},
		{
			"buffer":0,
			"byteLength":48,
			"byteOffset":332,
			"target":34962
		},
		{
			"buffer":0,
			"byteLength":32,
			"byteOffset":380,
			"target":34962
		},
		{
			"buffer":0,
			"byteLength":160,
			"byteOffset":412
		},
		{
			"buffer":0,
			"byteLength":480,
			"byteOffset":572
		},
		{
			"buffer":0,
			"byteLength":640,
			"byteOffset":1052
		},
		{
			"buffer":0,
			"byteLength":480,
			"byteOffset":1692
		},
		{
			"buffer":0,
			"byteLength":244,
			"byteOffset":2172
		},
		{
			"buffer":0,
			"byteLength":732,
			"byteOffset":2416
		},
		{
			"buffer":0,
			"byteLength":732,
			"byteOffset":3148
		},
		{
			"buffer":0,
			"byteLength":236,
			"byteOffset":3880
		},
		{
			"buffer":0,
			"byteLength":708,
			"byteOffset":4116
		}
	],
	"samplers":[
		{
			"magFilter":9729,
			"minFilter":9987
		}
	],
	"buffers":[
		{
			"byteLength":4824,
			"uri":"root.bin"
		}
	]
}
